<svg xmlns="http://www.w3.org/2000/svg" version="1.1" xmlns:xlink="http://www.w3.org/1999/xlink" width="1500" height="1500" viewBox="0 0 1500 1500"><rect width="1500" height="1500" x="0" y="0" id="background" stroke="transparent" fill="#eeeeee"></rect><svg xml:space="preserve" width="1000" height="1000" data-version="2" data-id="lg_v5VzhZpsh12dHv7Xnc" viewBox="0 0 514 164" x="250" y="250"><rect width="100%" height="100%" fill="transparent"></rect><path fill="#000000" d="M191.153 105.91h-6.27v-41.9h6.27v18.7l14.36-18.7h7.64l-14.42 18.41 16.47 23.49h-7.81l-12.82-18.76-3.42 4.22z"></path><rect width="30.32" height="41.9" x="-15.16" y="-20.95" fill="none" rx="0" ry="0" transform="translate(200.54 85.46)"></rect><path fill="#000000" d="M225.923 105.91h-6.38v-41.9h6.38z"></path><rect width="6.38" height="41.9" x="-3.19" y="-20.95" fill="none" rx="0" ry="0" transform="translate(223.23 85.46)"></rect><path fill="#000000" d="M261.723 105.91h-30.16l20.98-36.43h-18.3v-5.47h28.33l-20.69 36.31h19.84z"></path><rect width="31.01" height="41.9" x="-15.51" y="-20.95" fill="none" rx="0" ry="0" transform="translate(247.57 85.46)"></rect><path fill="#000000" d="m263.253 105.91 20.07-41.96h.63l20.17 41.96h-7.35l-3.59-8.21h-19.21l-3.59 8.21zm20.47-29.81h-.12l-2.5 5.7-4.56 10.14h14.13l-4.5-10.09z"></path><rect width="40.87" height="41.96" x="-20.43" y="-20.98" fill="none" rx="0" ry="0" transform="translate(284.19 85.43)"></rect><path fill="#000000" d="M326.703 106.31q-5.02 0-8.93-1.71-3.9-1.71-6.61-4.71-2.7-2.99-4.1-6.84-1.4-3.84-1.4-8.18 0-4.73 1.57-8.66 1.57-3.93 4.42-6.81 2.85-2.88 6.78-4.48 3.93-1.59 8.66-1.59 3.08 0 5.48.62 2.39.63 3.93 1.4 1.54.77 1.94 1.23l-2.8 5.7q-1.53-1.37-3.79-2.23-2.25-.85-5.27-.85-3.93 0-7.1 1.94-3.16 1.93-5.01 5.47-1.85 3.53-1.85 8.38 0 4.27 1.59 7.78 1.6 3.5 4.7 5.61 3.11 2.11 7.56 2.11 2.45 0 4.81-.65 2.37-.66 4.88-2.2l1.88 5.42q-.74.68-2.51 1.45-1.77.77-4.08 1.28-2.3.52-4.75.52"></path><rect width="32.78" height="42.98" x="-16.39" y="-21.49" fill="none" rx="0" ry="0" transform="translate(322.55 85.32)"></rect><path fill="#000000" d="M350.983 105.91h-6.39v-41.9h6.39v17.1h14.76v-17.1h6.38v41.9h-6.38V86.47h-14.76z"></path><rect width="27.53" height="41.9" x="-13.77" y="-20.95" fill="none" rx="0" ry="0" transform="translate(358.86 85.46)"></rect><path fill="#000000" d="m375.603 105.91 20.07-41.96h.62l20.18 41.96h-7.35l-3.59-8.21h-19.21l-3.59 8.21zm20.46-29.81h-.11l-2.51 5.7-4.56 10.14h14.14l-4.5-10.09z"></path><rect width="40.87" height="41.96" x="-20.43" y="-20.98" fill="none" rx="0" ry="0" transform="translate(396.54 85.43)"></rect><path fill="#000000" d="M434.313 105.91h-6.33V69.6h-10.71v-5.59h27.87v5.59h-10.83z"></path><rect width="27.87" height="41.9" x="-13.94" y="-20.95" fill="none" rx="0" ry="0" transform="translate(431.7 85.46)"></rect><path fill="#000000" d="M452.103 106.48q-1.71 0-2.91-1.17-1.2-1.17-1.2-2.88 0-1.77 1.17-2.94 1.17-1.16 2.94-1.16 1.82 0 2.96 1.16 1.14 1.17 1.14 2.94 0 1.71-1.17 2.88t-2.93 1.17"></path><rect width="8.21" height="8.15" x="-4.11" y="-4.08" fill="none" rx="0" ry="0" transform="translate(452.6 102.9)"></rect><path fill="#000000" d="m456.433 105.91 20.06-41.96h.63l20.18 41.96h-7.36l-3.59-8.21h-19.21l-3.59 8.21zm20.46-29.81h-.11l-2.51 5.7-4.56 10.14h14.13l-4.5-10.09z"></path><rect width="40.87" height="41.96" x="-20.43" y="-20.98" fill="none" rx="0" ry="0" transform="translate(477.37 85.43)"></rect><path fill="#000000" d="M507.963 105.91h-6.39v-41.9h6.39z"></path><rect width="6.39" height="41.9" x="-3.19" y="-20.95" fill="none" rx="0" ry="0" transform="translate(505.27 85.46)"></rect><path fill="#000000" fill-rule="evenodd" d="M84.334 160.035c-24.614 0-28.292-19.239-45.859-35.185-17.798-16.152-28.755-14.146-25.72-41.152C58.434 59.933 98.197 30.252 138.783 1.394c14.377 3.627 16.46 19.547 23.148 30.864-7.202 1.363-13.374 3.78-20.576 5.144-3.55 7.793 1.235 9.182 0 20.576-6.096 4.244-11.06-9.876-20.576-10.288 6.096 6.764 14.455 11.265 15.432 23.148-1.235 11.625-10.494 15.226-15.432 23.148-1.132 25.128 3.266 44.753 10.288 61.728-1.903 5.813-14.403 1.029-20.576 2.572-4.887-2.906-5.067-14.352-18.004-15.432-7.356-12.706.926-29.166 2.572-41.152-9.002-4.372-20.782 7.51-36.008 5.144 5.581 20.139 21.09 32.073 30.53 41.178 3.009 2.906 9.259 2.675 9.156 6.43-.129 5.144-9.902 5.581-14.403 5.581"></path><path fill="#000000" fill-rule="evenodd" d="M143.927 39.974c4.501-2.34 12.834-.874 15.432-5.144 1.62 11.523 10.185 40.509-15.432 36.008-6.559-8.436 3.01-17.953 0-30.864m-5.144 33.436c4.63-.334 5.401 3.164 10.288 2.572 5.993 29.14 23.148 47.145 28.292 77.16-5.144 7.716-21.09 4.63-33.436 5.144.026-5.118 7.022-3.266 5.144-10.288-16.384-9.336-10.34-41.1-23.148-54.012 2.598-8.539 14.223-8.05 12.86-20.576M24.329 87.993c19.959.618 7.742 56.121 16.718 67.721-6.61 4.758-29.218 3.6-36.008 0 1.235-15.946 15.663-54.218 19.29-67.72"></path></svg></svg>